# xmcd
#
# Track frame offsets:
#	150
#	17870
#	34605
#	52402
#	65727
#	77777
#	93057
#	108332
#	134325
#	149552
#
# Disc length: 2154 seconds
#
# Revision: 1
# Processed by: cddbd v1.5PL3 Copyright (c) Steve Scherf et al.
# Submitted via: audiograbber 1.83.01
#
DISCID=8e08680a
DTITLE=Chairmen Of The Board - A Gift Of Beach Music
DYEAR=1983
DGENRE=Oldies
TTITLE0=Id Rather Be in Carolina
TTITLE1=Beach Fever
TTITLE2=When Can I See You Again
TTITLE3=Down At The Beach Club
TTITLE4=Shag Your Brains Out
TTITLE5=Carolina Girls
TTITLE6=A Bird In The Hand
TTITLE7=Summer Love
TTITLE8=On The Beach
TTITLE9=Pretty Women Everywhere (Hey Baby)
EXTD=
EXTT0=
EXTT1=
EXTT2=
EXTT3=
EXTT4=
EXTT5=
EXTT6=
EXTT7=
EXTT8=
EXTT9=
PLAYORDER=
